<svg xmlns="http://www.w3.org/2000/svg" width="1600" height="1000" viewBox="0 0 1600 1000"><rect x="0" y="0" width="1600" height="1000" rx="0" fill="#121410" opacity="1"/><rect x="0" y="0" width="1600" height="86" rx="0" fill="#e8ffd0" opacity="0.04"/><text x="64" y="54" font-family="Helvetica, Arial, sans-serif" font-size="26" font-weight="700" fill="#e8ffd0" text-anchor="start" letter-spacing="4">KINETIC</text><text x="1120" y="54" font-family="Helvetica, Arial, sans-serif" font-size="15" font-weight="400" fill="#e8ffd0" text-anchor="start" letter-spacing="1.5">WORK</text><text x="1240" y="54" font-family="Helvetica, Arial, sans-serif" font-size="15" font-weight="400" fill="#e8ffd0" text-anchor="start" letter-spacing="1.5">STUDIO</text><text x="1360" y="54" font-family="Helvetica, Arial, sans-serif" font-size="15" font-weight="400" fill="#e8ffd0" text-anchor="start" letter-spacing="1.5">JOURNAL</text><text x="1480" y="54" font-family="Helvetica, Arial, sans-serif" font-size="15" font-weight="400" fill="#e8ffd0" text-anchor="start" letter-spacing="1.5">CONTACT</text><rect x="0" y="86" width="1600" height="1" rx="0" fill="#e8ffd0" opacity="0.12"/><text x="64" y="400" font-family="Helvetica, Arial, sans-serif" font-size="170" font-weight="700" fill="#e8ffd0" text-anchor="start" letter-spacing="-6">DIGITAL</text><text x="64" y="550" font-family="Helvetica, Arial, sans-serif" font-size="170" font-weight="700" fill="#b6ff3d" text-anchor="start" letter-spacing="-6">CRAFT</text><rect x="64" y="620" width="560" height="1" rx="0" fill="#e8ffd0" opacity="0.2"/><text x="64" y="690" font-family="Helvetica, Arial, sans-serif" font-size="24" font-weight="400" fill="#5a6b4a" text-anchor="start" letter-spacing="0">An independent studio building considered interfaces</text><text x="64" y="726" font-family="Helvetica, Arial, sans-serif" font-size="24" font-weight="400" fill="#5a6b4a" text-anchor="start" letter-spacing="0">for brands that refuse the template.</text><rect x="900" y="200" width="636" height="600" rx="8" fill="#e8ffd0" opacity="0.06"/><rect x="940" y="240" width="556" height="380" rx="4" fill="#b6ff3d" opacity="0.9"/><rect x="940" y="660" width="300" height="14" rx="7" fill="#e8ffd0" opacity="0.25"/><rect x="940" y="700" width="420" height="14" rx="7" fill="#e8ffd0" opacity="0.15"/></svg>